<svg xmlns="http://www.w3.org/2000/svg" width="135" height="64" viewBox="0 0 135 64" fill="none"><path d="M67.3037 6.05716H70.3965C70.5279 6.05716 70.6352 6.16441 70.6352 6.29587L70.6248 7.5897C70.6248 7.75922 70.7148 7.79727 70.8324 7.67273C71.1714 7.30257 71.8598 6.58992 72.3753 6.3097C73.0879 5.92225 73.9044 5.72852 74.8246 5.72852C75.7448 5.72852 76.5682 5.93608 77.2358 6.35122C77.8343 6.72484 78.2633 7.23338 78.5228 7.87684C78.5677 7.98754 78.6646 7.99792 78.7303 7.8976C79.1524 7.26797 79.7336 6.75943 80.4739 6.37198C81.2903 5.943 82.2071 5.72852 83.2207 5.72852C84.435 5.72852 85.4313 6.10906 86.2062 6.87014C86.9811 7.63122 87.3686 8.85933 87.3686 10.5475V18.3867C87.3686 18.5181 87.2614 18.6254 87.1299 18.6254H83.923C83.7915 18.6254 83.6843 18.5181 83.6843 18.3867V11.0526C83.6843 10.1497 83.5009 9.52008 83.1308 9.16376C82.7606 8.80743 82.2624 8.631 81.6328 8.631C81.0585 8.64138 80.5465 8.82127 80.1003 9.1776C79.6678 9.52354 79.3254 9.95252 79.0728 10.468C79.059 10.4957 79.0486 10.5441 79.0486 10.5752V18.3832C79.0486 18.5147 78.9414 18.6219 78.8099 18.6219H75.5891C75.4577 18.6219 75.3504 18.5147 75.3504 18.3832V11.0492C75.3504 10.1532 75.1671 9.527 74.8038 9.16722C74.4371 8.80743 73.9355 8.62754 73.299 8.62754C72.7316 8.62754 72.2265 8.81089 71.7803 9.18106C71.3478 9.53738 71.0088 9.96981 70.7632 10.4784C70.7494 10.506 70.739 10.5545 70.739 10.5856V18.3832C70.739 18.5147 70.6317 18.6219 70.5003 18.6219H67.3072C67.1757 18.6219 67.0685 18.5147 67.0685 18.3832V6.29241C67.0685 6.16095 67.1757 6.0537 67.3072 6.0537" fill="#006B69"></path><path d="M88.794 21.642C88.794 21.4829 88.9255 21.3791 89.0812 21.4102C89.2749 21.4483 89.4721 21.4829 89.6727 21.514C89.9737 21.559 90.285 21.5832 90.6033 21.5832C91.271 21.5832 91.8556 21.3168 92.3642 20.791C92.8589 20.2755 93.2048 19.6078 93.575 18.5181C93.5923 18.4731 93.5888 18.3936 93.5715 18.3486L88.5103 6.01908C88.4342 5.83919 88.5346 5.69043 88.7318 5.69043H91.8453C91.9318 5.69043 92.0321 5.75616 92.0632 5.83573L95.4535 13.8098C95.5158 13.9585 95.6161 13.9551 95.6749 13.8098L98.8022 5.84611C98.8334 5.76308 98.9337 5.69389 99.0236 5.69389H101.874C102.068 5.69389 102.168 5.84265 102.096 6.02254L96.7785 19.2238C96.0381 21.1127 95.2459 22.4169 94.4018 23.1399C93.5577 23.8595 92.4887 24.2228 91.1914 24.2228C90.6068 24.2228 90.1398 24.1951 89.7869 24.1397C89.4998 24.0948 89.223 24.0394 88.9566 23.9702C88.8598 23.946 88.7802 23.8388 88.7802 23.7384L88.7906 21.6558L88.794 21.642Z" fill="#006B69"></path><path d="M67.3036 27.814H70.3445C70.476 27.814 70.5832 27.9212 70.5832 28.0527V29.1044C70.5832 29.2635 70.6766 29.3016 70.7873 29.1874C71.0952 28.8761 71.7041 28.3018 72.2403 28.0389C72.9979 27.6687 73.8316 27.4854 74.7449 27.4854C76.4228 27.4854 77.7547 28.0458 78.7372 29.1632C79.7197 30.2806 80.2074 31.8304 80.2074 33.8127V34.2244C80.2074 36.2066 79.7162 37.7738 78.7302 38.9327C77.7443 40.0916 76.4401 40.6728 74.8141 40.6728C73.8835 40.6728 73.0671 40.5171 72.3718 40.2058C71.7836 39.9463 71.3028 39.6211 70.9257 39.2302C70.8115 39.1126 70.7216 39.1472 70.7216 39.3132V45.5818C70.7216 45.7132 70.6144 45.8205 70.4829 45.8205H67.3036C67.1722 45.8205 67.0649 45.7132 67.0649 45.5818V28.0527C67.0649 27.9212 67.1722 27.814 67.3036 27.814ZM71.794 37.4002C72.3095 37.7738 72.9114 37.9606 73.5929 37.9606C74.5858 37.9606 75.3227 37.6354 75.7966 36.9885C76.2706 36.3416 76.5093 35.4456 76.5093 34.3039V33.7574C76.5093 32.6157 76.2706 31.7474 75.7966 31.1489C75.3227 30.5504 74.5927 30.2529 73.6068 30.2529C72.9322 30.2529 72.3337 30.4328 71.8148 30.7926C71.2128 31.2112 70.7181 32.1556 70.7181 32.889V35.2864C70.7181 36.0164 71.2025 36.9677 71.794 37.4002Z" fill="black"></path><path d="M83.2586 33.7643C84.2653 33.0101 85.6076 32.633 87.2785 32.633L90.2986 32.6469C90.4301 32.6469 90.5373 32.5396 90.5373 32.4082V31.6886C90.5373 31.0763 90.3609 30.6127 90.0046 30.291C89.6482 29.9727 89.0878 29.8136 88.3198 29.8136C87.5518 29.8136 87.0156 29.9554 86.5935 30.2391C86.1749 30.5228 85.9639 30.9379 85.9639 31.4845V31.6263C85.9639 31.7578 85.8567 31.865 85.7252 31.865L82.7674 31.8547C82.6359 31.8547 82.5287 31.7474 82.5287 31.6159V31.3599C82.5287 30.1907 83.0822 29.2531 84.1857 28.5474C85.2893 27.8417 86.7561 27.4854 88.5793 27.4854C90.4024 27.4854 91.8069 27.8244 92.7618 28.5059C93.7166 29.1874 94.194 30.2979 94.194 31.8408V37.331C94.194 37.8879 94.2459 38.4138 94.3496 38.905C94.4188 39.2233 94.571 39.7457 94.6714 40.0743C94.7233 40.2438 94.6195 40.3822 94.443 40.3822H91.3434C91.2673 40.3822 91.1739 40.3303 91.1393 40.2681C91.0251 40.0639 90.9282 39.8287 90.8521 39.5623C90.7899 39.3409 90.738 39.1057 90.6999 38.867C90.6791 38.7217 90.5788 38.694 90.4889 38.8116C90.1879 39.2129 89.707 39.5865 89.0497 39.9325C88.2506 40.3511 87.2958 40.5621 86.1819 40.5621C84.8119 40.5621 83.7326 40.2369 82.9369 39.5831C82.1447 38.9292 81.7468 37.9986 81.7468 36.7844C81.7468 35.5701 82.2519 34.5184 83.2586 33.7643ZM85.9431 37.8568C86.3133 38.1543 86.8322 38.3031 87.4964 38.3031C88.2264 38.3031 88.9148 38.0644 89.5617 37.5904C90.2121 37.1165 90.5339 36.5422 90.5339 35.8642V34.982C90.5339 34.8505 90.4266 34.7433 90.2951 34.7433H88.261C87.3027 34.7433 86.5831 34.8886 86.1057 35.1826C85.6283 35.4732 85.3862 35.9299 85.3862 36.5526C85.3862 37.1269 85.5695 37.5628 85.9397 37.8603" fill="black"></path><path d="M97.0861 27.814H100.127C100.258 27.814 100.366 27.9212 100.366 28.0527V29.1044C100.366 29.2635 100.459 29.3016 100.57 29.1874C100.878 28.8761 101.487 28.3018 102.023 28.0389C102.78 27.6687 103.618 27.4854 104.527 27.4854C106.205 27.4854 107.537 28.0458 108.52 29.1632C109.499 30.2806 109.99 31.8304 109.99 33.8127V34.2244C109.99 36.2066 109.495 37.7738 108.509 38.9327C107.523 40.0916 106.219 40.6728 104.593 40.6728C103.663 40.6728 102.846 40.5171 102.147 40.2058C101.563 39.9463 101.078 39.6211 100.701 39.2302C100.587 39.1126 100.497 39.1472 100.497 39.3132V45.5991C100.497 45.7305 100.39 45.8378 100.258 45.8378H97.0792C96.9477 45.8378 96.8405 45.734 96.8405 45.6025V28.0562C96.8405 27.9247 96.9477 27.8175 97.0792 27.8175M101.57 37.4036C102.085 37.7772 102.687 37.9641 103.368 37.9641C104.361 37.9641 105.098 37.6389 105.572 36.9919C106.046 36.345 106.285 35.449 106.285 34.3074V33.7608C106.285 32.6192 106.046 31.7509 105.572 31.1524C105.098 30.5539 104.368 30.2564 103.382 30.2564C102.708 30.2564 102.109 30.4363 101.587 30.7961C100.985 31.2146 100.49 32.1591 100.49 32.8925V35.3072C100.49 36.0268 100.968 36.9643 101.549 37.3898L101.563 37.4002L101.57 37.4036Z" fill="black"></path><path d="M124.44 33.6875C124.43 31.7537 123.883 30.2315 122.79 29.121C121.697 28.0105 120.178 27.457 118.224 27.457C116.269 27.457 114.636 28.0382 113.401 29.2041C112.17 30.3699 111.554 31.9232 111.554 33.8674V34.2652C111.554 36.2544 112.156 37.825 113.363 38.9736C114.567 40.1256 116.224 40.6998 118.331 40.6998C119.957 40.6998 121.258 40.4265 122.24 39.8799C123.136 39.3783 123.793 38.6968 124.205 37.8354C124.267 37.704 124.212 37.5552 124.074 37.5033L121.521 36.5623C121.427 36.5277 121.303 36.5623 121.244 36.6454C120.991 37.0086 120.649 37.32 120.209 37.576C119.711 37.87 119.089 38.0153 118.341 38.0153C117.373 38.0153 116.594 37.6797 116.006 37.0155C115.56 36.5104 115.283 35.867 115.176 35.0851C115.155 34.9329 115.259 34.8118 115.411 34.8118H124.191C124.323 34.8118 124.43 34.7046 124.43 34.5731V33.6875H124.44ZM115.498 32.7292C115.328 32.7292 115.224 32.5943 115.266 32.4283C115.394 31.9336 115.615 31.4942 115.93 31.1102C116.466 30.4633 117.196 30.1381 118.127 30.1381C119.14 30.1381 119.853 30.3872 120.261 30.8923C120.621 31.3316 120.829 31.8575 120.881 32.4663C120.891 32.6082 120.784 32.7258 120.642 32.7258H115.498V32.7292Z" fill="black"></path><path d="M126.634 27.8141H129.827C129.958 27.8141 130.065 27.9214 130.065 28.0528V29.281C130.065 29.4574 130.159 29.492 130.273 29.3605C130.567 29.018 131.114 28.4161 131.536 28.1428C132.141 27.7519 132.833 27.5547 133.611 27.5547C133.902 27.5547 134.172 27.5651 134.417 27.5893C134.566 27.6031 134.691 27.6239 134.798 27.6481C134.898 27.6723 134.981 27.7761 134.981 27.8799V30.388C134.981 30.5575 134.846 30.6578 134.684 30.6198C134.556 30.5886 134.424 30.561 134.289 30.5437C134.047 30.5056 133.767 30.4883 133.449 30.4883C132.829 30.4883 132.21 30.689 131.594 31.0903C131.587 31.0937 131.581 31.0972 131.577 31.1006C130.774 31.6299 130.138 32.8823 130.138 33.844V40.1471C130.138 40.2786 130.031 40.3858 129.899 40.3858H126.64C126.509 40.3858 126.402 40.2786 126.402 40.1471V28.0563C126.402 27.9248 126.509 27.8176 126.64 27.8176" fill="black"></path><path d="M70.6283 49.8713L73.0395 58.219C73.1018 58.43 73.2021 58.4335 73.2679 58.219C73.7453 56.6553 75.5476 50.9161 75.8797 49.8609C75.9074 49.7675 76.0112 49.6949 76.1081 49.6949H79.3842C79.481 49.6949 79.5814 49.771 79.6125 49.8609L82.2348 58.2294C82.3005 58.4369 82.4008 58.4369 82.4631 58.2294C82.9094 56.6864 84.5665 50.9368 84.8778 49.8678C84.9055 49.7744 85.0093 49.6949 85.1061 49.6949H87.8633C88.0397 49.6949 88.1435 49.8332 88.0916 50.0028L84.4419 62.0936C84.4142 62.187 84.3104 62.2631 84.2136 62.2631H80.6503C80.5535 62.2631 80.4532 62.1904 80.422 62.097C80.083 61.0488 78.2218 55.3199 77.7409 53.8047C77.6787 53.6075 77.5749 53.6075 77.5126 53.8047L74.8869 62.0936C74.8592 62.1835 74.7554 62.2596 74.6586 62.2596H71.0261C70.9293 62.2596 70.8255 62.1835 70.7978 62.0901L67.1239 49.9993C67.072 49.8298 67.1758 49.6914 67.3522 49.6914H70.3965C70.4968 49.6914 70.5972 49.7675 70.6248 49.8644" fill="black"></path><path d="M88.5345 55.7522C88.5345 53.8253 89.1642 52.2754 90.4234 51.1027C91.6827 49.9299 93.3363 49.3418 95.3808 49.3418C97.4254 49.3418 99.0755 49.9299 100.331 51.1027C101.587 52.2754 102.213 53.8253 102.213 55.7522V56.15C102.213 58.0942 101.587 59.6544 100.331 60.8237C99.0755 61.9965 97.4254 62.5846 95.3808 62.5846C93.3363 62.5846 91.6723 62 90.4165 60.8237C89.1607 59.651 88.5345 58.0942 88.5345 56.15V55.7522ZM92.2327 56.2296C92.2327 57.3089 92.506 58.1738 93.0526 58.8311C93.5992 59.4884 94.3707 59.817 95.367 59.817C96.3633 59.817 97.1417 59.4884 97.6814 58.8311C98.221 58.1738 98.4874 57.302 98.4874 56.2157V55.683C98.4874 54.5967 98.2176 53.7353 97.6814 53.1022C97.1417 52.4691 96.3702 52.1509 95.367 52.1509C94.3637 52.1509 93.5992 52.4691 93.0526 53.1022C92.506 53.7388 92.2327 54.5967 92.2327 55.683V56.2296Z" fill="black"></path><path d="M104.251 49.6984H107.444C107.575 49.6984 107.682 49.8056 107.682 49.9371V51.1652C107.682 51.3416 107.776 51.3762 107.89 51.2448C108.184 50.9023 108.731 50.3003 109.153 50.0305C109.758 49.6396 110.45 49.4424 111.228 49.4424C111.519 49.4424 111.789 49.4528 112.034 49.477C112.183 49.4908 112.308 49.5116 112.412 49.5358C112.512 49.56 112.595 49.6638 112.595 49.7676V52.2757C112.595 52.4452 112.46 52.5455 112.297 52.5075C112.169 52.4763 112.038 52.4487 111.903 52.4314C111.661 52.3933 111.381 52.376 111.062 52.376C110.443 52.376 109.824 52.5767 109.208 52.978C109.201 52.9814 109.194 52.9849 109.191 52.9883C108.388 53.5176 107.752 54.77 107.752 55.7317V62.0348C107.752 62.1663 107.644 62.2735 107.513 62.2735H104.251C104.119 62.2735 104.012 62.1663 104.012 62.0348V49.944C104.012 49.8125 104.119 49.7053 104.251 49.7053" fill="black"></path><path d="M126.993 62.2704H123.288C123.219 62.2704 123.133 62.2254 123.091 62.1666L119.594 57.1538C119.504 57.0224 119.338 57.0085 119.227 57.1261L118.092 58.2989C118.054 58.337 118.026 58.4131 118.026 58.465V62.0317C118.026 62.1631 117.919 62.2704 117.788 62.2704H114.608C114.477 62.2704 114.37 62.1631 114.37 62.0317V44.5268C114.37 44.3953 114.477 44.2881 114.608 44.2881H117.788C117.919 44.2881 118.026 44.3919 118.026 44.5233V53.6459C118.026 53.8085 118.12 53.8466 118.231 53.729L122.337 49.4565C122.375 49.415 122.455 49.3839 122.51 49.3839H126.16C126.471 49.3839 126.547 49.5672 126.333 49.7886L121.932 54.3378C121.856 54.4174 121.846 54.5558 121.911 54.6457L127.187 61.8933C127.339 62.1008 127.253 62.2738 126.993 62.2738" fill="black"></path><path d="M0.0028753 51.9483C0.198395 51.1766 0.312688 50.3781 0.604531 49.6385C1.34923 47.7509 2.75597 46.393 4.63642 45.3243C5.9799 44.5605 7.40317 44.032 8.86741 43.5731C9.84142 43.2682 10.8801 43.1305 11.8922 42.9306C13.0165 42.709 14.1393 42.4749 15.2721 42.2959C16.1771 42.1523 17.0994 42.0999 18.0094 41.9759C19.3932 41.7878 20.7704 41.5544 22.1549 41.3734C24.5284 41.0639 26.9041 40.7682 29.2827 40.4883C31.7088 40.2024 34.1355 39.9277 36.5421 39.5159C40.0471 38.916 43.496 38.1476 46.7696 36.8245C48.5954 36.0863 50.2559 35.1192 51.7165 33.8643C53.3676 32.4461 54.3036 30.7244 54.4135 28.6604C54.4854 27.3189 54.4991 25.9729 54.4883 24.6295C54.4746 22.8507 54.402 21.0719 54.3754 19.2932C54.3596 18.2435 54.3891 17.1931 54.3862 16.1434C54.3805 14.069 54.3417 11.9892 53.9456 9.94493C53.7724 9.04932 53.4776 8.16026 52.9471 7.33546C52.421 6.51786 51.7086 5.95466 50.8273 5.53046C50.598 5.42031 50.3076 5.4131 50.0438 5.36393C48.8973 5.15018 47.7306 5.04921 46.5755 5.1869C45.9429 5.2623 45.3434 5.56128 44.7245 5.74617C43.3767 6.14939 42.4128 7.0555 41.3662 7.85604C40.9845 8.1478 40.5985 8.43563 40.2024 8.70969C39.1148 9.46041 38.3974 10.5114 37.5737 11.4654C36.6428 12.5433 35.8585 13.7247 34.9765 14.8393C33.912 16.1847 32.7762 17.4796 31.427 18.6021C30.2582 19.5744 28.9485 20.3232 27.3656 20.5887C26.0157 20.8149 24.6593 20.8431 23.3179 20.5402C21.3404 20.093 19.8223 19.0309 18.6089 17.5681C17.1634 15.8261 16.4489 13.7956 15.7688 11.7401C15.426 10.7035 14.976 9.69382 14.5174 8.6933C14.2658 8.14518 13.9251 7.62591 13.57 7.12565C13.253 6.67915 12.785 6.36575 12.2056 6.24184C11.3179 6.0517 10.4316 6.08252 9.56755 6.35723C9.41803 6.40444 9.28793 6.53032 9.17579 6.64309C8.63092 7.19122 8.51591 7.89341 8.39802 8.58119C8.20394 9.71152 7.96529 10.8438 7.90131 11.982C7.82152 13.4074 7.87903 14.84 7.9121 16.2687C7.96888 18.6998 8.10187 21.1309 8.11193 23.5621C8.12055 25.6719 7.99476 27.7818 7.94804 29.8924C7.93725 30.3913 8.01705 30.8909 8.0343 31.3912C8.04364 31.6547 8.01129 31.9203 7.99189 32.1845C7.97607 32.4087 7.86394 32.5517 7.60013 32.5897C7.48368 32.6067 7.36651 32.6631 7.26659 32.7247C6.3429 33.2945 5.41274 33.8557 4.40639 34.3003C4.30647 34.3442 4.18931 34.3547 4.08436 34.3908C3.90609 34.4524 3.71416 34.4989 3.55746 34.592C3.27496 34.7599 3.12545 34.7317 3.03559 34.4366C3.00037 34.3213 2.97809 34.1862 3.01044 34.0734C3.17864 33.4807 3.06075 32.8867 3.05716 32.2927C3.055 31.8777 3.10532 31.4633 3.12185 31.0483C3.13335 30.765 3.12688 30.4811 3.12904 30.1979C3.13479 29.4786 3.14773 28.7587 3.14342 28.0395C3.1391 27.3143 3.1197 26.5885 3.1046 25.8634C3.09022 25.1822 3.06578 24.501 3.05716 23.8204C3.04853 23.1497 3.07513 22.4783 3.05069 21.8076C2.986 20.0301 2.8753 18.254 2.83289 16.4765C2.77897 14.223 2.86092 11.9722 3.07657 9.72464C3.1657 8.79755 3.23686 7.86981 3.55674 6.98534C3.83852 6.20643 4.11886 5.41048 4.54728 4.69517C5.79157 2.61742 7.81577 1.64575 10.3583 1.53691C11.379 1.49298 12.404 1.45955 13.4147 1.72377C14.9501 2.12437 16.2217 2.87771 17.2554 3.97723C18.4026 5.1987 19.1178 6.63195 19.6965 8.13272C20.3298 9.77578 20.9163 11.4359 21.6301 13.0488C21.9622 13.8001 22.5121 14.4814 23.0282 15.1527C23.3553 15.5783 23.888 15.7966 24.4436 15.9244C25.391 16.1428 26.3298 16.1919 27.2298 15.7586C27.3433 15.7035 27.4339 15.6071 27.5331 15.5284C27.8206 15.299 28.1096 15.0708 28.3943 14.838C28.4856 14.7639 28.5754 14.6853 28.6495 14.5968C30.7103 12.1361 32.7151 9.63481 34.845 7.22531C36.4221 5.44195 38.1681 3.78316 40.2685 2.4817C42.1986 1.2858 44.3011 0.511479 46.6416 0.321341C46.7214 0.314785 46.799 0.285936 46.8774 0.267578C47.6667 0.267578 48.4566 0.267578 49.2459 0.267578C49.9417 0.407887 50.6368 0.548195 51.3327 0.687848C53.377 1.09828 55.0411 2.08503 56.3853 3.5209C57.8071 5.04069 58.6532 6.81815 59.0133 8.77985C59.3971 10.8707 59.6796 12.9753 59.7199 15.0977C59.7558 17.0194 59.7307 18.9424 59.7451 20.8647C59.7544 22.1714 59.7788 23.4782 59.8069 24.7849C59.8313 25.908 59.8895 27.0311 59.8939 28.1542C59.896 28.6919 59.8615 29.2393 59.7508 29.7658C59.2613 32.0914 58.3247 34.2321 56.6671 36.0994C54.8657 38.1293 52.6028 39.5972 50.0977 40.7945C48.1799 41.7111 46.1428 42.3483 44.1042 42.9974C41.5991 43.7954 38.9984 44.1573 36.4041 44.55C34.2031 44.8831 31.9862 45.1329 29.7787 45.4312C27.8185 45.6961 25.8626 45.9931 23.9009 46.2481C21.702 46.5347 19.4924 46.755 17.2985 47.0697C15.413 47.3398 13.5326 47.6565 11.6723 48.0413C10.6264 48.2577 9.56827 48.5547 8.61942 48.9986C7.72592 49.4169 6.80151 49.8752 6.17614 50.662C5.86273 51.056 5.63199 51.4868 5.6363 51.9693C5.64277 52.6479 5.67224 53.3324 5.77575 54.0038C5.94539 55.1092 6.76773 55.8049 7.74174 56.3667C9.17148 57.1909 10.7831 57.5574 12.4155 57.857C14.9774 58.3278 17.5738 58.5048 20.1795 58.6038C21.3821 58.6497 22.5833 58.733 23.7859 58.7684C25.3774 58.8156 26.9703 58.8333 28.5625 58.8621C30.0878 58.8897 31.6139 58.9159 33.1392 58.9421C33.7387 58.9526 34.3382 58.9749 34.937 58.9657C35.2504 58.9611 35.571 58.8425 35.8751 58.8766C36.7355 58.9729 37.5808 58.8064 38.4355 58.809C40.5295 58.8149 42.6234 58.7526 44.7166 58.7546C46.5733 58.7559 48.4308 58.8149 50.2875 58.832C50.938 58.8379 51.59 58.7684 52.2398 58.7782C54.0455 58.8064 55.8505 58.8864 57.6562 58.8884C58.6165 58.8897 59.5769 58.7448 60.5386 58.7199C60.8988 58.7107 61.2905 58.8018 61.6183 58.9434C61.9483 59.0857 61.9612 59.4319 61.9583 59.7446C61.9533 60.2554 61.9396 60.7674 61.9619 61.2775C61.9885 61.8683 61.706 62.3331 61.2488 62.6977C61.0346 62.8688 60.7155 62.935 60.438 63.0366C59.6847 63.3114 58.9048 63.4038 58.0925 63.3717C57.4089 63.3448 56.7217 63.3736 56.0366 63.3868C52.9579 63.4471 49.8799 63.5054 46.8012 63.5762C45.1637 63.6143 43.5234 63.6313 41.8895 63.7356C37.7929 63.9972 33.692 63.9441 29.5918 63.9559C29.4732 63.9559 29.3546 63.9847 29.2353 63.9998H26.5548C26.4139 63.9775 26.2737 63.9395 26.1321 63.9355C25.0122 63.906 23.8908 63.9021 22.7723 63.8536C20.9185 63.7729 19.0632 63.6923 17.2137 63.5585C15.8105 63.4569 14.4167 63.2497 13.0143 63.133C11.586 63.0144 10.221 62.6492 8.86669 62.2676C7.77264 61.9594 6.72388 61.5155 5.6593 61.1228C4.67164 60.7583 3.92694 60.0659 3.11466 59.4784C2.61508 59.1172 2.25567 58.59 1.85097 58.1252C1.11346 57.2787 0.75189 56.2612 0.396791 55.258C0.176112 54.6352 0.126513 53.9625 0 53.3114C0 52.8564 0 52.402 0 51.947L0.0028753 51.9483Z" fill="#006B69"></path></svg>